<?xml version="1.0" standalone="yes"?>
<svg width="92" height="92" viewBox="0 0 92 92" fill="none" xmlns="http://www.w3.org/2000/svg">
<path style="fill:none; stroke:#ffffff;" d="M52.4 52.4L65.2 65.2M42.8 58.8C38.5565 58.8 34.4869 57.1143 31.4863 54.1137C28.4857 51.1131 26.8 47.0435 26.8 42.8C26.8 38.5566 28.4857 34.4869 31.4863 31.4863C34.4869 28.4857 38.5565 26.8 42.8 26.8C47.0435 26.8 51.1131 28.4857 54.1137 31.4863C57.1143 34.4869 58.8 38.5566 58.8 42.8C58.8 47.0435 57.1143 51.1131 54.1137 54.1137C51.1131 57.1143 47.0435 58.8 42.8 58.8ZM46 90.8C40.1168 90.8 34.2912 89.6412 28.8558 87.3898C23.4204 85.1384 18.4817 81.8385 14.3216 77.6784C10.1615 73.5183 6.86161 68.5796 4.61019 63.1442C2.35878 57.7089 1.2 51.8832 1.2 46C1.2 40.1168 2.35878 34.2912 4.61019 28.8558C6.86161 23.4204 10.1615 18.4817 14.3216 14.3216C18.4817 10.1616 23.4204 6.86162 28.8558 4.61021C34.2912 2.3588 40.1168 1.20001 46 1.20001C57.8817 1.20001 69.2768 5.92 77.6784 14.3216C86.08 22.7233 90.8 34.1183 90.8 46C90.8 57.8817 86.08 69.2768 77.6784 77.6784C69.2768 86.08 57.8817 90.8 46 90.8Z"/>
</svg>
