<?xml version="1.0" standalone="yes"?>
<svg width="330" height="360" viewBox="0 0 33 36" fill="none" xmlns="http://www.w3.org/2000/svg">
<path d="M14.5386 3.19525C8.33497 3.20003 3.40763 8.13564 3.4124 14.3402C3.41583 18.7947 5.96387 22.6109 9.78287 24.358L9.78862 31.8353L20.9234 31.8267L20.9198 27.054L22.5104 27.0528C24.2602 27.0514 25.6907 25.6185 25.6894 23.8685L25.6857 19.0958L28.0717 19.0939C28.708 19.0934 29.1846 18.2976 28.707 17.8207L25.6817 13.8458C25.3589 7.80057 20.5833 3.1906 14.5386 3.19525ZM14.5362 0.0134377C21.8534 0.00780741 27.9021 5.41224 28.703 12.5707L31.2507 15.9097C32.2061 17.1817 32.2073 18.7726 31.572 20.0458C30.9366 21.1599 29.9828 21.9561 28.8694 22.1161L28.8707 23.8661C28.8731 26.8888 26.807 29.2767 24.1035 30.0743L24.1073 35.0061L6.60969 35.0195L6.60296 26.2695C2.62416 23.5681 0.234821 19.2744 0.231026 14.3426C0.224905 6.38809 6.58276 0.0195575 14.5362 0.0134377ZM19.3193 14.3279C20.2737 14.3272 20.9095 13.6904 20.9087 12.7358C20.908 11.7813 20.2712 11.1454 19.3168 11.1461C18.3624 11.1469 17.7266 11.7837 17.7274 12.7383C17.7281 13.6928 18.3649 14.3287 19.3193 14.3279ZM14.5472 14.3316C15.5016 14.3309 16.1374 13.694 16.1367 12.7395C16.1359 11.7849 15.4992 11.1491 14.5448 11.1498C13.5904 11.1505 12.9546 11.7874 12.9553 12.7419C12.956 13.6965 13.5928 14.3323 14.5472 14.3316ZM9.77515 14.3353C10.5705 14.3347 11.3654 13.6977 11.3646 12.7432C11.3639 11.7886 10.568 11.1529 9.77271 11.1535C8.97736 11.1541 8.18251 11.7911 8.18324 12.7456C8.18398 13.7001 8.97981 14.3359 9.77515 14.3353Z" fill="#565454"/>
</svg>
