<?xml version="1.0" standalone="yes"?>
<svg xmlns="http://www.w3.org/2000/svg" width="295" height="340">
<path style="fill:#000000; stroke:none;" d="M0 0L0 340L295 340L295 0L0 0z"/>
<path style="fill:#ffffff; stroke:none;" d="M72 9C68.2726 15.9917 61.9845 25.9152 63 34C56.3859 32.429 50.515 28.8624 44 27C41.4236 31.8832 39.1842 37.0218 36.7608 42C35.7939 43.9861 34.2926 46.5104 35.2407 48.7755C36.1821 51.0242 38.9207 51.8818 41.0008 52.652C45.9752 54.494 50.9561 56.356 56 58C54.2855 62.118 49.3257 68.3861 50.1327 72.956C51.1799 78.8861 61.3615 79.6935 66 81C58.8566 84.9832 51.2628 77.7251 44 76C39.6698 82.5659 29.1736 94.6089 40 99C42.6147 94.504 44.857 89.7378 47 85C52.8119 87.4326 57.9202 91.2451 64 93C65.7218 88.8577 67.8768 85.5391 67 81C70.4007 79.804 72.3271 75.8836 68.6813 73.2785C65.8017 71.2209 61.3925 70.7021 58 70C60.5091 65.7887 71.2818 59.1336 65 55C73.8622 51.6009 87.1662 47.0893 90 37C83.7726 34.4589 77.7499 32.5372 71 32L72 27C70.6342 28.6314 69.8582 30.0378 69 32C75.7461 33.9002 82.4482 35.4762 89 38C82.5738 45.7066 73.8347 51.0852 64 53C64.5876 54.3495 66.0321 56.4274 65.8519 57.9653C65.5795 60.2895 62.6088 61.7473 61.0895 63.2091C58.6878 65.5199 57.1869 67.9368 56 71C61.7459 72.1891 69.2309 72.8531 69 80C64.5324 79.0784 53.1584 78.2918 51.8164 72.8673C50.7075 68.3854 56.0095 61.7831 58 58C50.7609 54.1448 42.7859 51.5334 35 49C37.9751 41.8561 42.2342 35.6289 44 28C50.6236 30.754 56.9844 34.3336 64 36C63.75 26.4441 70.3752 19.1148 72 10C78.8828 14.6812 85.3454 17.8384 93 21.0116C96.1111 22.3013 99.5427 24.6065 103 24.6428C106.9 24.6837 110.439 21.4922 114 20.1852C120.993 17.6185 128.616 16.1931 136 15.2863C165.006 11.724 200.747 25.4484 214.68 52C218.244 58.7929 220.239 67.351 218.61 75C217.685 79.3438 214.053 83.3964 215.095 88C216.326 93.4358 219.345 98.4261 220.485 104C222.792 115.268 221.547 130.153 215.34 140C212.245 144.912 207.842 149.949 203 153.191C201.382 154.275 198.564 156.04 196.773 154.289C195.26 152.809 195.957 149.867 195.876 148C195.671 143.302 195.001 138.733 195 134C180.469 141.424 190.487 155.007 193.971 166C195.84 171.896 196.596 178.279 198.993 183.996C201.728 190.519 209.779 194.191 215 198.59C224.175 206.321 232.581 215.244 239.572 225C249.138 238.35 256.108 254.187 260.36 270C262.212 276.89 263.153 283.912 263.83 291C264.175 294.612 263.566 298.575 265.318 301.91C268.255 307.5 276.774 311.746 282 315C277.707 309.048 269.518 306.592 266.179 299.996C264.614 296.905 265.149 293.333 264.83 290C264.252 283.953 263.449 277.947 262.196 272C258.974 256.706 251.932 241.143 243.564 228C236.286 216.569 227.109 207.076 217 198.17C211.945 193.716 203.463 190.168 200.43 183.985C196.976 176.944 196.342 168.362 193.575 161C191.898 156.54 188.14 150.815 188.133 146C188.128 142.178 191.43 138.359 193 135C194.445 139.889 193.909 144.936 194.005 149.999C194.047 152.222 193.876 155.312 196.318 156.377C200.012 157.99 204.331 154.224 206.961 152.111C215.017 145.637 221.052 135.412 221.907 125C222.519 117.542 223.11 109.358 221.405 102C220.274 97.1211 216.92 91.9059 216.603 87C216.302 82.3241 219.724 77.8111 219.96 73C220.821 55.4244 211.995 40.7199 197.961 30.4398C178.659 16.3012 152.366 11.3541 129 15.2469C123.199 16.2134 117.479 17.2238 112 19.4537C108.898 20.7162 105.495 23.4372 102 23.0771C99.2041 22.7892 96.5504 20.8144 94 19.7462C86.4111 16.5675 79.477 12.1443 72 9M74 18L72 26C73.6633 23.7783 74.3547 21.7052 75 19C81.2955 22.4911 87.495 25.1245 94 28.1227C97.0692 29.5373 100.465 32.1705 104 32.0378C107.391 31.9105 110.123 29.0174 113 27.5255C118.251 24.8022 124.136 22.9308 130 22.1589C154.855 18.8874 186.937 24.8453 203.101 46.0008C209.162 53.9336 215.633 65.6704 211.258 75.9406C209.272 80.6059 205.001 78.9889 201 79.2091C196.722 79.4446 192.065 80.4305 188.044 81.9036C182.191 84.048 181.159 90.9187 178.676 96C177.016 99.3961 174.694 102.133 172.271 105C170.181 107.473 166.821 110.483 166.954 114C167.156 119.325 172.008 126.142 174.139 131C180.149 144.703 185.949 159.488 189.626 174C191.169 180.092 193.442 185.72 192 192C187.405 188.983 185.118 189.904 180 190.741C175.971 191.4 171.614 190.571 168.279 193.514C164.201 197.112 164.891 203.188 165.579 208C167.203 219.343 170.226 229.514 174.862 240C188.291 270.373 212.043 295.237 237 316.579C245.973 324.253 255.49 333.555 266 339C271.306 331.591 277.695 323.962 282 316C276.73 319.746 273.999 324.86 270.27 329.998C268.996 331.754 267.403 334.887 264.896 334.959C261.889 335.046 258.328 331.271 256 329.66C248.481 324.454 242.001 318.271 235 312.435C209.245 290.966 186.331 264.265 173.603 233C170.495 225.365 168.837 218.068 167.386 210C166.678 206.067 165.362 201.925 167.01 198.043C169.804 191.461 179.791 191.067 186 191.005C189.923 190.965 191.632 192.625 195 190C201.522 198.012 211.697 202.504 218.83 210.039C239.963 232.363 256.652 262.617 258 294C249.499 288.378 242.979 281.26 235.961 273.996C222.707 260.277 210.452 244.698 202.873 227C198.303 216.329 197.029 204.738 193 194C191.17 202.009 196.934 215.437 199.808 223C207.665 243.681 221.198 260.16 235.899 276.325C242.796 283.908 250.472 292.753 260 297C258.642 265.858 243.961 235.956 223.715 213C218.76 207.383 213.03 202.444 207 198.014C202.033 194.365 196.217 191.058 194.044 184.985C191.946 179.125 191.143 172.909 189.254 167C185.51 155.286 180.97 143.316 176.15 132C174.096 127.179 166.968 117.148 168.979 112C170.736 107.502 175.46 104.072 178.035 100C181.143 95.0847 182.055 87.4567 187.133 84.0856C191.043 81.4894 197.359 80.3052 202 80.3434C204.71 80.3657 208.121 81.9873 210.566 80.223C213.586 78.044 213.656 71.3828 213.741 68C214.067 55.0242 204.198 42.2198 193.996 35.3333C174.231 21.9918 151.374 18.0748 128 21.1589C122.505 21.8839 116.931 23.8267 112.015 26.3735C109.448 27.7029 106.937 30.3176 103.91 30.3928C100.756 30.4711 97.7607 28.3716 95 27.1196C88.4274 24.1389 81.0092 19.3516 74 18M42 47C46.7921 48.3869 51.355 50.1984 56 52C62.8562 45.5023 74.993 49.6371 80 40C75.3024 39.3933 70.7472 38.2044 66 38L66 41C61.1279 40.2805 51.803 34.8788 47.2639 37.132C43.9658 38.7691 42.8084 43.7664 42 47z"/>
<path style="fill:#000000; stroke:none;" d="M47 37L43 46C46.2207 47.0896 49.6066 48.9583 53 49.3426C55.7656 49.6558 58.3581 48.4596 61 47.8426C67.416 46.3442 73.1805 45.3086 79 42C72.8077 38.2664 69.1475 41.1713 62.9606 41.1867C57.5787 41.2001 52.2631 37.9057 47 37z"/>
<path style="fill:#ffffff; stroke:none;" d="M153 52.858C150.732 53.7752 148.78 55.4063 147.044 57.0941C133.708 70.0565 147.709 91.4309 165 84.8557C185.437 77.084 172.486 44.9765 153 52.858z"/>
<path style="fill:#000000; stroke:none;" d="M154 53.7276C133.524 61.0178 144.172 90.8535 164 84.1458C183.443 77.5687 172.43 47.166 154 53.7276z"/>
<path style="fill:#ffffff; stroke:none;" d="M162 80C159.423 78.8856 156.452 78.8521 154.044 77.2577C152.438 76.194 151.052 74.7105 150.183 72.9846C142.479 57.6815 172.829 55.5684 167.248 71.9985C166.386 74.5362 164.445 76.775 163 79C173.293 73.0465 168.735 55.8659 156.015 58.6991C148.1 60.4618 145.507 70.6625 150.804 76.6057C153.743 79.9034 157.916 79.9635 162 80z"/>
<path style="fill:#000000; stroke:none;" d="M44 77C40.8173 83.0488 36.301 89.2531 35 96C43.8108 97.4688 40.6992 87.5911 47.213 85.4182C53.7515 83.2371 60.6199 96.0852 65.6335 86.9861C66.3236 85.7336 66.6072 84.3555 67 83C58.9109 85.5285 51.6778 79.1949 44 77z"/>
<path style="fill:#ffffff; stroke:none;" d="M179 127C179.759 122.669 175.936 119.273 176.223 115C176.378 112.687 178.008 110.841 179.238 109C181.823 105.13 184.363 101.151 186.475 97C187.839 94.3215 188.821 90.7898 191.394 88.9884C202.535 81.1866 210.616 92.4778 213.255 102C217.396 116.944 214.98 136.044 202 146C202 140.577 202.033 122.269 192.103 125.786C188.402 127.097 185.625 132.236 183 135L181 128C180.156 130.851 181.111 133.183 182 136C186.368 134.267 188.835 128.482 193.039 127.461C196.053 126.729 198 129.679 199.057 132.015C201.359 137.106 201 142.56 201 148C216.927 140.552 218.49 115.797 214.29 101C212.784 95.693 211.292 89.2232 205.957 86.4606C203.708 85.2963 201.446 85.2963 199 85.6057C187.828 87.0188 186.71 94.3531 181.382 103C179.297 106.384 175.347 109.962 174.724 114C174.071 118.228 177.448 123.216 179 127M16 118C19.7248 118.885 29.0788 120.907 30.1829 125.225C32.8066 135.485 8.25228 146.087 23 154L22 158L13 154C8.65859 161.601 4.02667 170.468 2 179C7.938 182.376 14.6345 184.531 21 187C17.1592 193.582 14.2164 200.598 12.375 208C1.84254 250.337 31.0998 286.698 67 305.514C97.107 321.293 134.6 325.821 168 320.561C177.988 318.988 187.325 315.747 197 313C190.112 311.427 179.988 316.971 173 318.399C158.448 321.373 142.825 321.926 128 320.91C77.5505 317.456 16.4764 285.763 11.1698 230C9.61517 213.664 17.7034 200.915 22 186C16.0228 183.338 9.44002 180.144 3 179C5.77536 170.849 11.4875 163.485 13 155C15.9158 156.923 18.792 158.618 22 160C22.9685 158.264 24.3424 156.478 23.5517 154.37C22.6169 151.879 18.8504 150.666 19.598 147.56C20.9848 141.798 27.7672 136.405 30.4421 131C31.9365 127.98 32.5484 124.441 29.6821 122.046C28.0846 120.712 25.8868 119.801 24.0015 118.957C21.6889 117.921 19.4875 117.374 17 117C19.6964 110.525 24.8661 95.3022 33 96C29.3461 93.3899 26.797 95.48 24.5833 99.0193C21.0923 104.601 16.8589 111.433 16 118M41 101L32 97C38.7348 105.165 42.3611 97.3487 50 98C47.9487 101.685 45.4985 105.047 44 109C38.9866 106.913 34.3897 103.961 29 103L26 112C28.1226 109.595 28.998 107.045 30 104C33.5378 105.652 37.9407 109.43 41.9846 109.292C47.6699 109.097 50.5033 100.578 51 96C46.1879 96.0569 43.4469 96.6389 41 101M25 113C27.9406 117.825 35.2347 117.712 36.6674 124.004C38.0806 130.21 33.1929 136.395 29.7685 141C26.217 145.776 24.3036 149.639 31 152C29.5021 155.579 27.0293 163.036 22.7901 164.072C20.4167 164.652 17.8113 162.748 15.5602 164.121C12.548 165.959 10.924 172.791 10 176C15.8757 179.344 22.4742 182.215 29 184C23.9628 192.63 19.7859 202.208 17.662 212C8.08656 256.15 46.2748 293.366 85 307.136C104.588 314.101 125.392 316.001 146 316C161.202 315.999 177.523 313.313 192 308.641C198.388 306.58 204.994 300.603 210 307L198 311C204.966 312.463 211.7 307.987 208 301C202.155 302.683 196.806 305.767 191 307.641C181.751 310.626 171.645 312.546 162 313.715C135.83 316.887 106.53 314.717 82 304.384C72.7581 300.491 64.3022 294.893 56 289.355C36.3519 276.249 19.5168 255.269 17.1698 231C15.4366 213.078 25.2922 199.348 30 183L11 175C13.2618 171.4 14.6171 168.251 15 164C17.9608 164.806 21.8424 166.97 24.787 165.211C31.2456 161.354 33.5848 152.039 26 149C30.9443 142.324 43.6789 128.413 36.3966 119.39C33.7247 116.08 28.5755 115.099 25 113M265 330C267.255 326.595 274.063 319.358 272.694 315.093C271.629 311.778 267.032 309.866 264.424 307.946C257.318 302.714 250.646 296.906 244.17 290.92C226.03 274.153 209.986 255.358 199.255 233C195.846 225.898 192.819 218.661 190.895 211C189.983 207.37 190.032 201.38 187.262 198.603C185.105 196.442 180.774 196.8 178.005 197.189C171.488 198.106 171.692 203.559 172.09 209C172.871 219.661 177.622 231.285 181.876 241C193.817 268.274 216.936 291.086 239 310.282C246.778 317.048 255.545 325.786 265 330z"/>
<path style="fill:#000000; stroke:none;" d="M265 328C267.661 323.671 270.741 319.541 273 315C252.344 301.063 232.972 283.636 217.575 263.996C211.264 255.946 204.566 247.413 200.425 238C195.568 226.96 190.959 216.888 188.571 205.001C187.768 201.005 186.41 198.346 181.995 198.073C173.729 197.563 172.368 202.923 173.289 210C174.687 220.735 178.849 232.256 183.478 242C195.984 268.331 217.855 291.297 240 309.753C247.445 315.958 255.712 324.868 265 328z"/>
</svg>
